# xmcd
#
# Track frame offsets: 
#        150
#        9827
#        22962
#        32637
#        41995
#        43177
#        53220
#        56777
#        65167
#        77692
#        80270
#        92635
#        93267
#        105295
#        107817
#        118970
#        129437
#        140100
#        146182
#
# Disc length: 2086 seconds
#
# Revision: 3
# Processed by: cddbd v1.5.2PL0 Copyright (c) Steve Scherf et al.
# Submitted via: ExactAudioCopy v0.95b4
#
DISCID=08082413
DTITLE=Various Artist - Good Morning, Vietnam
DYEAR=1987
DGENRE=Soundtrack
TTITLE0=Robin Williams - Adrian Cronauer - Good Morning Vietnam
TTITLE1=Martha Reeves and The Vandellas - Nowhere To Run
TTITLE2=The Beach Boys - I Get Around
TTITLE3=Wayne Fontana and the Mindbenders - Game Of Love
TTITLE4=Robin Williams - Adrian Cronauer - Bob Cramer, Artillery
TTITLE5=The Searchers - Sugar And Spice
TTITLE6=Robin Williams - Adrian Cronauer - Crete-Gomer-Lyndon
TTITLE7=The Castaways - Liar, Liar
TTITLE8=The Beach Boys - The Warmth Of The Sun
TTITLE9=Robin Williams - Adrian Cronauer - Mr. Leo
TTITLE10=James Brown - I Got You (I Feel Good)
TTITLE11=Robin Williams - Adrian Cronauer - Lawerence Welk
TTITLE12=Them - Baby Please Dont Go
TTITLE13=Robin Williams - Adrian Cronauer - Nixon
TTITLE14=The Marvelettes - Danger Heartbreak Dead Ahead
TTITLE15=The Vogues - Five O'Clock World
TTITLE16=The Rivieras - California Sun
TTITLE17=Robin Williams - Adrian Cronauer - Here's The News
TTITLE18=Louis Armstrong - What A Wonderful World
EXTD=
EXTT0=
EXTT1=
EXTT2=
EXTT3=
EXTT4=
EXTT5=
EXTT6=
EXTT7=
EXTT8=
EXTT9=
EXTT10=
EXTT11=
EXTT12=
EXTT13=
EXTT14=
EXTT15=
EXTT16=
EXTT17=
EXTT18=
PLAYORDER=
